<?xml version="1.0" encoding="UTF-8" standalone="no"?>
<svg
   xmlns:dc="http://purl.org/dc/elements/1.1/"
   xmlns:cc="http://creativecommons.org/ns#"
   xmlns:rdf="http://www.w3.org/1999/02/22-rdf-syntax-ns#"
   xmlns:svg="http://www.w3.org/2000/svg"
   xmlns="http://www.w3.org/2000/svg"
   xmlns:sodipodi="http://sodipodi.sourceforge.net/DTD/sodipodi-0.dtd"
   xmlns:inkscape="http://www.inkscape.org/namespaces/inkscape"
   viewBox="0 0 576 512"
   version="1.1"
   id="svg3773"
   sodipodi:docname="book-open.svg"
   inkscape:version="0.92.3 (2405546, 2018-03-11)">
  <metadata
     id="metadata3779">
    <rdf:RDF>
      <cc:Work
         rdf:about="">
        <dc:format>image/svg+xml</dc:format>
        <dc:type
           rdf:resource="http://purl.org/dc/dcmitype/StillImage" />
      </cc:Work>
    </rdf:RDF>
  </metadata>
  <defs
     id="defs3777" />
  <sodipodi:namedview
     pagecolor="#ffffff"
     bordercolor="#666666"
     borderopacity="1"
     objecttolerance="10"
     gridtolerance="10"
     guidetolerance="10"
     inkscape:pageopacity="0"
     inkscape:pageshadow="2"
     inkscape:window-width="1600"
     inkscape:window-height="831"
     id="namedview3775"
     showgrid="false"
     inkscape:zoom="1.1953125"
     inkscape:cx="288"
     inkscape:cy="256"
     inkscape:window-x="0"
     inkscape:window-y="41"
     inkscape:window-maximized="1"
     inkscape:current-layer="svg3773" />
  <path
     d="M542.22 32.05c-54.8 3.11-163.72 14.43-230.96 55.59-4.64 2.84-7.27 7.89-7.27 13.17v363.87c0 11.55 12.63 18.85 23.28 13.49 69.18-34.82 169.23-44.32 218.7-46.92 16.89-.89 30.02-14.43 30.02-30.66V62.75c.01-17.71-15.35-31.74-33.77-30.7zM264.73 87.64C197.5 46.48 88.58 35.17 33.78 32.05 15.36 31.01 0 45.04 0 62.75V400.6c0 16.24 13.13 29.78 30.02 30.66 49.49 2.6 149.59 12.11 218.77 46.95 10.62 5.35 23.21-1.94 23.21-13.46V100.63c0-5.29-2.62-10.14-7.27-12.99z"
     id="path3771"
     style="fill:#ffffff" />
  <path
     style="stroke-width:0.83660132"
     d="m 250.8549,478.52762 c -1.61046,-0.60836 -6.61213,-2.84457 -11.11482,-4.96933 C 196.89738,453.34129 126.04211,437.8273 52.162092,432.48749 42.039216,431.75584 31.023639,430.79125 27.683033,430.34396 17.106616,428.92784 8.9209249,423.38508 3.9988202,414.30673 L 1.1294118,409.01438 V 231.6549 54.295425 L 3.9988202,49.003074 C 10.171523,37.618113 22.771387,31.215625 36.491876,32.492072 c 2.636919,0.245319 10.064987,0.843161 16.506817,1.32854 84.790637,6.388797 160.456107,24.990676 204.793227,50.347128 6.82601,3.903799 9.76881,6.114288 11.38288,8.550249 l 2.17683,3.285309 V 282.68778 469.37227 l -2.0915,3.09024 c -2.3929,3.53555 -9.07592,7.26325 -12.92243,7.20796 -1.40508,-0.0202 -3.87234,-0.53448 -5.4828,-1.14285 z"
     id="path3781"
     inkscape:connector-curvature="0" />
  <path
     style="stroke-width:0.83660132"
     d="m 250.8549,478.50506 c -1.61046,-0.62077 -7.55309,-3.23483 -13.20586,-5.809 C 191.40804,451.63871 124.79362,437.65508 41.998014,431.62522 32.726725,430.95001 23.631521,429.87746 21.786447,429.24178 13.383615,426.34677 7.6575431,421.39792 3.4285089,413.37565 L 1.1294118,409.01438 V 231.6549 54.295425 L 3.9731044,49.051322 C 7.211577,43.079198 11.406812,38.94638 17.20395,36.017326 24.56482,32.298182 28.700175,31.94378 48.020087,33.376363 130.80634,39.515015 198.59203,54.810867 246.25359,78.107784 c 16.29935,7.967099 21.49525,11.49441 23.72902,16.10876 l 1.80202,3.722469 -0.2165,185.716697 -0.2165,185.7167 -2.0915,3.09017 c -2.3929,3.53547 -9.07599,7.26317 -12.92243,7.20789 -1.40508,-0.0202 -3.87234,-0.54463 -5.4828,-1.16541 z"
     id="path3783"
     inkscape:connector-curvature="0" />
  <path
     style="stroke-width:0.83660132"
     d="M 243.74379,475.41125 C 203.53969,456.76661 152.65962,443.78714 90.227451,436.24934 74.507287,434.35135 52.940614,432.34506 40.031373,431.57972 35.2,431.2933 28.988235,430.67952 26.227451,430.21578 16.346781,428.55609 7.5044769,421.95547 3.0508973,412.91491 L 1.1294118,409.01438 0.91445024,232.54456 0.69948871,56.074746 3.1215777,50.898861 C 6.5622684,43.546274 10.704545,39.345515 18.131832,35.676687 l 6.34233,-3.132896 10.079259,0.14914 c 19.354779,0.286387 61.436423,4.862584 91.611489,9.962353 52.16235,8.815753 95.68527,22.14885 127.18052,38.961312 11.53676,6.158428 14.67212,8.540682 16.66857,12.664799 l 1.75593,3.627268 V 282.82013 467.7316 l -1.94359,3.67539 c -1.45374,2.74908 -3.05919,4.25819 -6.37004,5.98779 -6.25111,3.26562 -8.98726,2.99031 -19.71251,-1.98353 z"
     id="path3785"
     inkscape:connector-curvature="0" />
  <path
     style="stroke-width:0.83660132;image-rendering:auto;fill:#ffffff"
     d="M 240.99275,474.26122 C 191.50171,451.90536 130.4942,438.67425 46.305882,432.03821 34.802614,431.13147 24.178131,430.03308 22.695919,429.59735 14.529966,427.19672 6.8906708,420.70947 3.0508973,412.91491 L 1.1294118,409.01438 V 231.6549 54.295425 L 3.0508973,50.394897 C 7.3775867,41.611914 16.342299,34.769893 25.938486,32.926698 c 5.022916,-0.96478 19.643719,-0.156516 47.138638,2.605908 71.890746,7.222888 133.219006,22.383713 174.842566,43.222453 14.38597,7.202304 19.95186,11.100613 22.05649,15.448203 l 1.79375,3.705401 -0.004,185.252197 -0.004,185.25221 -1.87806,3.07375 c -3.14613,5.14914 -8.56959,8.24876 -14.34278,8.1972 -1.42676,-0.0127 -7.97326,-2.453 -14.54777,-5.4228 z"
     id="path3787"
     inkscape:connector-curvature="0" />
</svg>
