<?xml version="1.0" encoding="UTF-8" standalone="no"?>
<svg
   xmlns:dc="http://purl.org/dc/elements/1.1/"
   xmlns:cc="http://creativecommons.org/ns#"
   xmlns:rdf="http://www.w3.org/1999/02/22-rdf-syntax-ns#"
   xmlns:svg="http://www.w3.org/2000/svg"
   xmlns="http://www.w3.org/2000/svg"
   xmlns:sodipodi="http://sodipodi.sourceforge.net/DTD/sodipodi-0.dtd"
   xmlns:inkscape="http://www.inkscape.org/namespaces/inkscape"
   width="8"
   height="8"
   viewBox="0 0 8 8"
   version="1.1"
   id="svg113"
   sodipodi:docname="power-standby.svg"
   inkscape:version="0.92.3 (2405546, 2018-03-11)">
  <metadata
     id="metadata119">
    <rdf:RDF>
      <cc:Work
         rdf:about="">
        <dc:format>image/svg+xml</dc:format>
        <dc:type
           rdf:resource="http://purl.org/dc/dcmitype/StillImage" />
      </cc:Work>
    </rdf:RDF>
  </metadata>
  <defs
     id="defs117" />
  <sodipodi:namedview
     pagecolor="#ffffff"
     bordercolor="#666666"
     borderopacity="1"
     objecttolerance="10"
     gridtolerance="10"
     guidetolerance="10"
     inkscape:pageopacity="0"
     inkscape:pageshadow="2"
     inkscape:window-width="1600"
     inkscape:window-height="831"
     id="namedview115"
     showgrid="false"
     inkscape:zoom="76.5"
     inkscape:cx="4"
     inkscape:cy="4"
     inkscape:window-x="0"
     inkscape:window-y="41"
     inkscape:window-maximized="1"
     inkscape:current-layer="svg113" />
  <path
     d="M3 0v4h1v-4h-1zm-1.28 1.44l-.38.31c-.81.64-1.34 1.64-1.34 2.75 0 1.93 1.57 3.5 3.5 3.5s3.5-1.57 3.5-3.5c0-1.11-.53-2.11-1.34-2.75l-.38-.31-.63.78.38.31c.58.46.97 1.17.97 1.97 0 1.39-1.11 2.5-2.5 2.5s-2.5-1.11-2.5-2.5c0-.8.36-1.51.94-1.97l.41-.31-.63-.78z"
     id="path111"
     style="fill:#ffffff" />
</svg>
